<svg width="12" height="13" viewBox="0 0 12 13" fill="none" xmlns="http://www.w3.org/2000/svg">
<mask id="mask0_546_1384" style="mask-type:alpha" maskUnits="userSpaceOnUse" x="0" y="0" width="12" height="13">
<rect y="0.5" width="12" height="12" fill="#D9D9D9"/>
</mask>
<g mask="url(#mask0_546_1384)">
<path d="M9 11L11 9L10.3 8.3L9.5 9.1V7.0125H8.5V9.1L7.7 8.3L7 9L9 11ZM7 12.5V11.5H11V12.5H7ZM3 10.5C2.725 10.5 2.48958 10.4021 2.29375 10.2063C2.09792 10.0104 2 9.775 2 9.5V2.5C2 2.225 2.09792 1.98958 2.29375 1.79375C2.48958 1.59792 2.725 1.5 3 1.5H6.5L9.5 4.5V6.0125H8.5V5H6V2.5H3V9.5H6V10.5H3Z" fill="#0E4690"/>
</g>
</svg>
