<svg width="40" height="40" viewBox="0 0 40 40" fill="none" xmlns="http://www.w3.org/2000/svg">
<mask id="mask0_380_98" style="mask-type:alpha" maskUnits="userSpaceOnUse" x="0" y="0" width="40" height="40">
<rect width="40" height="40" fill="#D9D9D9"/>
</mask>
<g mask="url(#mask0_380_98)">
<path d="M9.99996 36.6667C9.08329 36.6667 8.29857 36.3403 7.64579 35.6875C6.99301 35.0347 6.66663 34.25 6.66663 33.3333V16.6667C6.66663 15.75 6.99301 14.9653 7.64579 14.3125C8.29857 13.6597 9.08329 13.3333 9.99996 13.3333H11.6666V9.99999C11.6666 7.69443 12.4791 5.72916 14.1041 4.10416C15.7291 2.47916 17.6944 1.66666 20 1.66666C22.3055 1.66666 24.2708 2.47916 25.8958 4.10416C27.5208 5.72916 28.3333 7.69443 28.3333 9.99999V13.3333H30C30.9166 13.3333 31.7013 13.6597 32.3541 14.3125C33.0069 14.9653 33.3333 15.75 33.3333 16.6667V33.3333C33.3333 34.25 33.0069 35.0347 32.3541 35.6875C31.7013 36.3403 30.9166 36.6667 30 36.6667H9.99996ZM9.99996 33.3333H30V16.6667H9.99996V33.3333ZM20 28.3333C20.9166 28.3333 21.7013 28.0069 22.3541 27.3542C23.0069 26.7014 23.3333 25.9167 23.3333 25C23.3333 24.0833 23.0069 23.2986 22.3541 22.6458C21.7013 21.993 20.9166 21.6667 20 21.6667C19.0833 21.6667 18.2986 21.993 17.6458 22.6458C16.993 23.2986 16.6666 24.0833 16.6666 25C16.6666 25.9167 16.993 26.7014 17.6458 27.3542C18.2986 28.0069 19.0833 28.3333 20 28.3333ZM15 13.3333H25V9.99999C25 8.6111 24.5138 7.43055 23.5416 6.45832C22.5694 5.4861 21.3888 4.99999 20 4.99999C18.6111 4.99999 17.4305 5.4861 16.4583 6.45832C15.4861 7.43055 15 8.6111 15 9.99999V13.3333Z" fill="#1C74E9"/>
</g>
</svg>
