<svg width="18" height="20" viewBox="0 0 18 20" fill="none" xmlns="http://www.w3.org/2000/svg">
<g clip-path="url(#clip0_1004_4063)">
<path d="M14.8789 3.79297C13.2422 2.15234 11.0625 1.25 8.74609 1.25C3.96484 1.25 0.0742187 5.14062 0.0742187 9.92188C0.0742187 11.4492 0.472656 12.9414 1.23047 14.2578L0 18.75L4.59766 17.543C5.86328 18.2344 7.28906 18.5977 8.74219 18.5977H8.74609C13.5234 18.5977 17.5 14.707 17.5 9.92578C17.5 7.60938 16.5156 5.43359 14.8789 3.79297ZM8.74609 17.1367C7.44922 17.1367 6.17969 16.7891 5.07422 16.1328L4.8125 15.9766L2.08594 16.6914L2.8125 14.0313L2.64062 13.7578C1.91797 12.6094 1.53906 11.2852 1.53906 9.92188C1.53906 5.94922 4.77344 2.71484 8.75 2.71484C10.6758 2.71484 12.4844 3.46484 13.8437 4.82812C15.2031 6.19141 16.0391 8 16.0352 9.92578C16.0352 13.9023 12.7187 17.1367 8.74609 17.1367ZM12.6992 11.7383C12.4844 11.6289 11.418 11.1055 11.2188 11.0352C11.0195 10.9609 10.875 10.9258 10.7305 11.1445C10.5859 11.3633 10.1719 11.8477 10.043 11.9961C9.91797 12.1406 9.78906 12.1602 9.57422 12.0508C8.30078 11.4141 7.46484 10.9141 6.625 9.47266C6.40234 9.08984 6.84766 9.11719 7.26172 8.28906C7.33203 8.14453 7.29687 8.01953 7.24219 7.91016C7.1875 7.80078 6.75391 6.73438 6.57422 6.30078C6.39844 5.87891 6.21875 5.9375 6.08594 5.92969C5.96094 5.92188 5.81641 5.92188 5.67187 5.92188C5.52734 5.92188 5.29297 5.97656 5.09375 6.19141C4.89453 6.41016 4.33594 6.93359 4.33594 8C4.33594 9.06641 5.11328 10.0977 5.21875 10.2422C5.32813 10.3867 6.74609 12.5742 8.92187 13.5156C10.2969 14.1094 10.8359 14.1602 11.5234 14.0586C11.9414 13.9961 12.8047 13.5352 12.9844 13.0273C13.1641 12.5195 13.1641 12.0859 13.1094 11.9961C13.0586 11.8984 12.9141 11.8438 12.6992 11.7383Z" fill="#333333"/>
</g>
<defs>
<clipPath id="clip0_1004_4063">
<rect width="17.5" height="20" fill="white"/>
</clipPath>
</defs>
</svg>
