<svg width="12" height="13" viewBox="0 0 12 13" fill="none" xmlns="http://www.w3.org/2000/svg">
<mask id="mask0_756_5761" style="mask-type:alpha" maskUnits="userSpaceOnUse" x="0" y="0" width="12" height="13">
<rect y="0.5" width="12" height="12" fill="#D9D9D9"/>
</mask>
<g mask="url(#mask0_756_5761)">
<path d="M5.5 8.5V4.425L4.2 5.725L3.5 5L6 2.5L8.5 5L7.8 5.725L6.5 4.425V8.5H5.5ZM3 10.5C2.725 10.5 2.48958 10.4021 2.29375 10.2063C2.09792 10.0104 2 9.775 2 9.5V8H3V9.5H9V8H10V9.5C10 9.775 9.90208 10.0104 9.70625 10.2063C9.51042 10.4021 9.275 10.5 9 10.5H3Z" fill="#0E4690"/>
</g>
</svg>
