<svg width="194" height="41" viewBox="0 0 194 41" fill="none" xmlns="http://www.w3.org/2000/svg">
<mask id="mask0_353_519" style="mask-type:alpha" maskUnits="userSpaceOnUse" x="0" y="0" width="40" height="40">
<rect width="40" height="40" fill="#1A73E8"/>
</mask>
<g mask="url(#mask0_353_519)">
<path d="M5.00004 22.5L18.3334 3.33335V22.5H5.00004ZM11.375 19.1667H15V13.9584L11.375 19.1667ZM20.8334 22.5C21.1667 21.7222 21.5278 20.3611 21.9167 18.4167C22.3056 16.4722 22.5 14.5 22.5 12.5C22.5 10.5 22.3125 8.44446 21.9375 6.33335C21.5625 4.22224 21.1945 2.66669 20.8334 1.66669C22.5278 2.16669 24.2153 3.09724 25.8959 4.45835C27.5764 5.81946 29.0903 7.44446 30.4375 9.33335C31.7848 11.2222 32.882 13.2986 33.7292 15.5625C34.5764 17.8264 35 20.1389 35 22.5H20.8334ZM25.1667 19.1667H31.3334C30.8612 17.0278 30.0903 15.0695 29.0209 13.2917C27.9514 11.5139 26.8195 10 25.625 8.75002C25.6806 9.33335 25.7292 9.93752 25.7709 10.5625C25.8125 11.1875 25.8334 11.8334 25.8334 12.5C25.8334 13.8056 25.7709 15.0139 25.6459 16.125C25.5209 17.2361 25.3612 18.25 25.1667 19.1667ZM15 31.6667C14 31.6667 13.0695 31.4306 12.2084 30.9584C11.3473 30.4861 10.6112 29.8889 10 29.1667C9.61115 29.5834 9.18754 29.9722 8.72921 30.3334C8.27087 30.6945 7.76393 30.9861 7.20837 31.2084C6.23615 30.4861 5.40976 29.5903 4.72921 28.5209C4.04865 27.4514 3.58337 26.2778 3.33337 25H36.6667C36.4167 26.2778 35.9514 27.4514 35.2709 28.5209C34.5903 29.5903 33.7639 30.4861 32.7917 31.2084C32.2362 30.9861 31.7292 30.6945 31.2709 30.3334C30.8125 29.9722 30.3889 29.5834 30 29.1667C29.3612 29.8889 28.6181 30.4861 27.7709 30.9584C26.9237 31.4306 26 31.6667 25 31.6667C24 31.6667 23.0695 31.4306 22.2084 30.9584C21.3473 30.4861 20.6112 29.8889 20 29.1667C19.3889 29.8889 18.6528 30.4861 17.7917 30.9584C16.9306 31.4306 16 31.6667 15 31.6667ZM3.33337 38.3334V35H5.00004C5.88893 35 6.75699 34.8611 7.60421 34.5834C8.45143 34.3056 9.25004 33.8889 10 33.3334C10.75 33.8889 11.5487 34.2986 12.3959 34.5625C13.2431 34.8264 14.1112 34.9584 15 34.9584C15.8889 34.9584 16.75 34.8264 17.5834 34.5625C18.4167 34.2986 19.2223 33.8889 20 33.3334C20.75 33.8889 21.5487 34.2986 22.3959 34.5625C23.2431 34.8264 24.1112 34.9584 25 34.9584C25.8889 34.9584 26.75 34.8264 27.5834 34.5625C28.4167 34.2986 29.2223 33.8889 30 33.3334C30.7778 33.8889 31.5834 34.3056 32.4167 34.5834C33.25 34.8611 34.1112 35 35 35H36.6667V38.3334H35C34.1389 38.3334 33.2917 38.2292 32.4584 38.0209C31.625 37.8125 30.8056 37.5 30 37.0834C29.1945 37.5 28.375 37.8125 27.5417 38.0209C26.7084 38.2292 25.8612 38.3334 25 38.3334C24.1389 38.3334 23.2917 38.2292 22.4584 38.0209C21.625 37.8125 20.8056 37.5 20 37.0834C19.1945 37.5 18.375 37.8125 17.5417 38.0209C16.7084 38.2292 15.8612 38.3334 15 38.3334C14.1389 38.3334 13.2917 38.2292 12.4584 38.0209C11.625 37.8125 10.8056 37.5 10 37.0834C9.19449 37.5 8.37504 37.8125 7.54171 38.0209C6.70837 38.2292 5.86115 38.3334 5.00004 38.3334H3.33337Z" fill="white"/>
</g>
<path d="M75.6543 31.5123H71.0453L60.6091 15.7428V31.5123H56V8.5H60.6091L71.0453 24.3025V8.5H75.6543V31.5123Z" fill="white"/>
<path d="M78.3655 22.3272C78.3655 20.4835 78.7276 18.8484 79.4519 17.4218C80.1981 15.9952 81.1968 14.8978 82.4478 14.1296C83.7208 13.3615 85.1364 12.9774 86.6947 12.9774C88.0555 12.9774 89.2407 13.2517 90.2503 13.8004C91.2818 14.3491 92.1049 15.0405 92.7194 15.8745V13.2737H97.3614V31.5123H92.7194V28.8457C92.1268 29.7016 91.3038 30.415 90.2503 30.9856C89.2187 31.5343 88.0225 31.8086 86.6618 31.8086C85.1254 31.8086 83.7208 31.4136 82.4478 30.6235C81.1968 29.8333 80.1981 28.725 79.4519 27.2984C78.7276 25.8498 78.3655 24.1927 78.3655 22.3272ZM92.7194 22.393C92.7194 21.2737 92.4999 20.3189 92.061 19.5288C91.622 18.7167 91.0294 18.1022 90.2832 17.6852C89.5369 17.2462 88.7359 17.0268 87.8799 17.0268C87.0239 17.0268 86.2338 17.2353 85.5095 17.6523C84.7852 18.0693 84.1926 18.6838 83.7317 19.4959C83.2928 20.286 83.0733 21.2298 83.0733 22.3272C83.0733 23.4246 83.2928 24.3903 83.7317 25.2243C84.1926 26.0364 84.7852 26.6619 85.5095 27.1008C86.2557 27.5398 87.0459 27.7593 87.8799 27.7593C88.7359 27.7593 89.5369 27.5508 90.2832 27.1337C91.0294 26.6948 91.622 26.0802 92.061 25.2901C92.4999 24.4781 92.7194 23.5123 92.7194 22.393Z" fill="white"/>
<path d="M108.809 27.2654L113.418 13.2737H118.324L111.575 31.5123H105.978L99.2621 13.2737H104.2L108.809 27.2654Z" fill="white"/>
<path d="M137.209 21.9979C137.209 22.6564 137.165 23.249 137.077 23.7757H123.744C123.854 25.0926 124.314 26.1241 125.127 26.8704C125.939 27.6166 126.937 27.9897 128.122 27.9897C129.834 27.9897 131.052 27.2545 131.777 25.784H136.748C136.221 27.5398 135.212 28.9883 133.719 30.1296C132.227 31.249 130.394 31.8086 128.221 31.8086C126.465 31.8086 124.885 31.4246 123.48 30.6564C122.098 29.8663 121.011 28.7579 120.221 27.3313C119.453 25.9047 119.069 24.2586 119.069 22.393C119.069 20.5055 119.453 18.8484 120.221 17.4218C120.989 15.9952 122.065 14.8978 123.448 14.1296C124.83 13.3615 126.421 12.9774 128.221 12.9774C129.955 12.9774 131.502 13.3505 132.863 14.0967C134.246 14.8429 135.31 15.9074 136.057 17.2901C136.825 18.6509 137.209 20.2202 137.209 21.9979ZM132.435 20.6811C132.413 19.4959 131.985 18.5521 131.151 17.8498C130.317 17.1255 129.297 16.7634 128.089 16.7634C126.948 16.7634 125.983 17.1145 125.192 17.8169C124.424 18.4973 123.952 19.452 123.777 20.6811H132.435Z" fill="white"/>
<path d="M147.059 12.9774C148.419 12.9774 149.616 13.2517 150.647 13.8004C151.679 14.3272 152.491 15.0185 153.083 15.8745V13.2737H157.725V31.644C157.725 33.334 157.385 34.8375 156.705 36.1543C156.024 37.4931 155.004 38.5466 153.643 39.3148C152.282 40.1049 150.636 40.5 148.705 40.5C146.115 40.5 143.986 39.8964 142.318 38.6893C140.672 37.4822 139.739 35.8361 139.52 33.751H144.096C144.337 34.585 144.853 35.2435 145.643 35.7263C146.455 36.2311 147.432 36.4835 148.573 36.4835C149.912 36.4835 150.998 36.0775 151.832 35.2654C152.666 34.4753 153.083 33.2682 153.083 31.644V28.8128C152.491 29.6687 151.668 30.382 150.614 30.9527C149.583 31.5233 148.397 31.8086 147.059 31.8086C145.522 31.8086 144.118 31.4136 142.845 30.6235C141.572 29.8333 140.562 28.725 139.816 27.2984C139.092 25.8498 138.729 24.1927 138.729 22.3272C138.729 20.4835 139.092 18.8484 139.816 17.4218C140.562 15.9952 141.561 14.8978 142.812 14.1296C144.085 13.3615 145.5 12.9774 147.059 12.9774ZM153.083 22.393C153.083 21.2737 152.864 20.3189 152.425 19.5288C151.986 18.7167 151.393 18.1022 150.647 17.6852C149.901 17.2462 149.1 17.0268 148.244 17.0268C147.388 17.0268 146.598 17.2353 145.873 17.6523C145.149 18.0693 144.557 18.6838 144.096 19.4959C143.657 20.286 143.437 21.2298 143.437 22.3272C143.437 23.4246 143.657 24.3903 144.096 25.2243C144.557 26.0364 145.149 26.6619 145.873 27.1008C146.62 27.5398 147.41 27.7593 148.244 27.7593C149.1 27.7593 149.901 27.5508 150.647 27.1337C151.393 26.6948 151.986 26.0802 152.425 25.2901C152.864 24.4781 153.083 23.5123 153.083 22.393Z" fill="white"/>
<path d="M160.383 22.3272C160.383 20.4835 160.745 18.8484 161.47 17.4218C162.216 15.9952 163.215 14.8978 164.466 14.1296C165.739 13.3615 167.154 12.9774 168.712 12.9774C170.073 12.9774 171.258 13.2517 172.268 13.8004C173.3 14.3491 174.123 15.0405 174.737 15.8745V13.2737H179.379V31.5123H174.737V28.8457C174.145 29.7016 173.321 30.415 172.268 30.9856C171.236 31.5343 170.04 31.8086 168.68 31.8086C167.143 31.8086 165.739 31.4136 164.466 30.6235C163.215 29.8333 162.216 28.725 161.47 27.2984C160.745 25.8498 160.383 24.1927 160.383 22.3272ZM174.737 22.393C174.737 21.2737 174.518 20.3189 174.079 19.5288C173.64 18.7167 173.047 18.1022 172.301 17.6852C171.555 17.2462 170.754 17.0268 169.898 17.0268C169.042 17.0268 168.252 17.2353 167.527 17.6523C166.803 18.0693 166.21 18.6838 165.749 19.4959C165.311 20.286 165.091 21.2298 165.091 22.3272C165.091 23.4246 165.311 24.3903 165.749 25.2243C166.21 26.0364 166.803 26.6619 167.527 27.1008C168.273 27.5398 169.064 27.7593 169.898 27.7593C170.754 27.7593 171.555 27.5508 172.301 27.1337C173.047 26.6948 173.64 26.0802 174.079 25.2901C174.518 24.4781 174.737 23.5123 174.737 22.393Z" fill="white"/>
<path d="M187.831 16.1049C188.424 15.1392 189.192 14.382 190.136 13.8333C191.101 13.2846 192.199 13.0103 193.428 13.0103V17.8498H192.21C190.761 17.8498 189.664 18.19 188.918 18.8704C188.193 19.5508 187.831 20.7359 187.831 22.4259V31.5123H183.222V13.2737H187.831V16.1049Z" fill="white"/>
</svg>
