<svg width="136" height="29" viewBox="0 0 136 29" fill="none" xmlns="http://www.w3.org/2000/svg">
<mask id="mask0_405_136" style="mask-type:alpha" maskUnits="userSpaceOnUse" x="0" y="0" width="28" height="28">
<rect width="28" height="28" fill="#1A73E8"/>
</mask>
<g mask="url(#mask0_405_136)">
<path d="M3.50016 15.7498L12.8335 2.33317V15.7498H3.50016ZM7.96266 13.4165H10.5002V9.77067L7.96266 13.4165ZM14.5835 15.7498C14.8168 15.2054 15.0696 14.2526 15.3418 12.8915C15.6141 11.5304 15.7502 10.1498 15.7502 8.74984C15.7502 7.34984 15.6189 5.91095 15.3564 4.43317C15.0939 2.95539 14.8363 1.8665 14.5835 1.1665C15.7696 1.5165 16.9509 2.16789 18.1272 3.12067C19.3036 4.07345 20.3634 5.21095 21.3064 6.53317C22.2495 7.85539 23.0175 9.30886 23.6106 10.8936C24.2036 12.4783 24.5002 14.0971 24.5002 15.7498H14.5835ZM17.6168 13.4165H21.9335C21.6029 11.9193 21.0634 10.5484 20.3147 9.304C19.5661 8.05956 18.7738 6.99984 17.9377 6.12484C17.9766 6.53317 18.0106 6.95609 18.0397 7.39359C18.0689 7.83109 18.0835 8.28317 18.0835 8.74984C18.0835 9.66373 18.0397 10.5096 17.9522 11.2873C17.8647 12.0651 17.7529 12.7748 17.6168 13.4165ZM10.5002 22.1665C9.80016 22.1665 9.14877 22.0012 8.546 21.6707C7.94322 21.3401 7.42794 20.9221 7.00016 20.4165C6.72794 20.7082 6.43141 20.9804 6.11058 21.2332C5.78975 21.4859 5.43488 21.6901 5.046 21.8457C4.36544 21.3401 3.78697 20.713 3.31058 19.9644C2.83419 19.2158 2.5085 18.3943 2.3335 17.4998H25.6668C25.4918 18.3943 25.1661 19.2158 24.6897 19.9644C24.2134 20.713 23.6349 21.3401 22.9543 21.8457C22.5654 21.6901 22.2106 21.4859 21.8897 21.2332C21.5689 20.9804 21.2724 20.7082 21.0002 20.4165C20.5529 20.9221 20.0328 21.3401 19.4397 21.6707C18.8467 22.0012 18.2002 22.1665 17.5002 22.1665C16.8002 22.1665 16.1488 22.0012 15.546 21.6707C14.9432 21.3401 14.4279 20.9221 14.0002 20.4165C13.5724 20.9221 13.0571 21.3401 12.4543 21.6707C11.8516 22.0012 11.2002 22.1665 10.5002 22.1665ZM2.3335 26.8332V24.4998H3.50016C4.12238 24.4998 4.73002 24.4026 5.32308 24.2082C5.91613 24.0137 6.47516 23.7221 7.00016 23.3332C7.52516 23.7221 8.08419 24.0089 8.67725 24.1936C9.2703 24.3783 9.87794 24.4707 10.5002 24.4707C11.1224 24.4707 11.7252 24.3783 12.3085 24.1936C12.8918 24.0089 13.4557 23.7221 14.0002 23.3332C14.5252 23.7221 15.0842 24.0089 15.6772 24.1936C16.2703 24.3783 16.8779 24.4707 17.5002 24.4707C18.1224 24.4707 18.7252 24.3783 19.3085 24.1936C19.8918 24.0089 20.4557 23.7221 21.0002 23.3332C21.5446 23.7221 22.1085 24.0137 22.6918 24.2082C23.2752 24.4026 23.8779 24.4998 24.5002 24.4998H25.6668V26.8332H24.5002C23.8974 26.8332 23.3043 26.7603 22.721 26.6144C22.1377 26.4686 21.5641 26.2498 21.0002 25.9582C20.4363 26.2498 19.8627 26.4686 19.2793 26.6144C18.696 26.7603 18.1029 26.8332 17.5002 26.8332C16.8974 26.8332 16.3043 26.7603 15.721 26.6144C15.1377 26.4686 14.5641 26.2498 14.0002 25.9582C13.4363 26.2498 12.8627 26.4686 12.2793 26.6144C11.696 26.7603 11.1029 26.8332 10.5002 26.8332C9.89738 26.8332 9.30433 26.7603 8.721 26.6144C8.13766 26.4686 7.56405 26.2498 7.00016 25.9582C6.43627 26.2498 5.86266 26.4686 5.27933 26.6144C4.696 26.7603 4.10294 26.8332 3.50016 26.8332H2.3335Z" fill="#0E4690"/>
</g>
<path d="M52.9582 22.0588H49.7319L42.4265 11.0202V22.0588H39.2002V5.9502H42.4265L49.7319 17.0119V5.9502H52.9582V22.0588Z" fill="#0E4690"/>
<path d="M54.856 15.6292C54.856 14.3387 55.1095 13.1941 55.6165 12.1955C56.1389 11.1968 56.8379 10.4287 57.7136 9.89094C58.6047 9.35321 59.5957 9.08435 60.6865 9.08435C61.639 9.08435 62.4686 9.2764 63.1754 9.66048C63.8975 10.0446 64.4736 10.5285 64.9038 11.1123V9.29176H68.1531V22.0588H64.9038V20.1922C64.4889 20.7913 63.9128 21.2907 63.1754 21.6901C62.4533 22.0742 61.616 22.2662 60.6634 22.2662C59.588 22.2662 58.6047 21.9897 57.7136 21.4366C56.8379 20.8835 56.1389 20.1077 55.6165 19.109C55.1095 18.0951 54.856 16.9351 54.856 15.6292ZM64.9038 15.6753C64.9038 14.8918 64.7501 14.2234 64.4429 13.6704C64.1356 13.1019 63.7208 12.6717 63.1984 12.3798C62.6761 12.0726 62.1153 11.9189 61.5161 11.9189C60.9169 11.9189 60.3638 12.0649 59.8569 12.3568C59.3499 12.6487 58.935 13.0789 58.6124 13.6473C58.3051 14.2004 58.1515 14.861 58.1515 15.6292C58.1515 16.3974 58.3051 17.0734 58.6124 17.6572C58.935 18.2256 59.3499 18.6635 59.8569 18.9708C60.3792 19.278 60.9323 19.4317 61.5161 19.4317C62.1153 19.4317 62.6761 19.2857 63.1984 18.9938C63.7208 18.6865 64.1356 18.2564 64.4429 17.7033C64.7501 17.1348 64.9038 16.4588 64.9038 15.6753Z" fill="#0E4690"/>
<path d="M76.1668 19.086L79.3931 9.29176H82.8269L78.1026 22.0588H74.1849L69.4836 9.29176H72.9404L76.1668 19.086Z" fill="#0E4690"/>
<path d="M96.0464 15.3988C96.0464 15.8597 96.0156 16.2745 95.9542 16.6432H86.6209C86.6977 17.565 87.0203 18.2871 87.5888 18.8095C88.1572 19.3318 88.8562 19.593 89.6859 19.593C90.8842 19.593 91.7369 19.0783 92.2439 18.049H95.7237C95.355 19.278 94.6483 20.292 93.6036 21.0909C92.5589 21.8745 91.276 22.2662 89.755 22.2662C88.5259 22.2662 87.4198 21.9974 86.4365 21.4597C85.4686 20.9066 84.7081 20.1307 84.155 19.1321C83.6173 18.1335 83.3484 16.9812 83.3484 15.6753C83.3484 14.354 83.6173 13.1941 84.155 12.1955C84.6927 11.1968 85.4455 10.4287 86.4135 9.89094C87.3814 9.35321 88.4952 9.08435 89.755 9.08435C90.9687 9.08435 92.0519 9.34553 93.0044 9.86789C93.9723 10.3903 94.7174 11.1354 95.2398 12.1033C95.7775 13.0558 96.0464 14.1543 96.0464 15.3988ZM92.7048 14.4769C92.6894 13.6473 92.3899 12.9867 91.806 12.4951C91.2222 11.9881 90.5078 11.7346 89.6628 11.7346C88.8639 11.7346 88.1879 11.9804 87.6349 12.472C87.0971 12.9483 86.7668 13.6166 86.6439 14.4769H92.7048Z" fill="#0E4690"/>
<path d="M102.941 9.08435C103.894 9.08435 104.731 9.2764 105.453 9.66048C106.175 10.0292 106.744 10.5132 107.159 11.1123V9.29176H110.408V22.151C110.408 23.334 110.17 24.3864 109.693 25.3082C109.217 26.2454 108.503 26.9828 107.55 27.5206C106.598 28.0737 105.445 28.3502 104.093 28.3502C102.281 28.3502 100.79 27.9277 99.6227 27.0827C98.4704 26.2377 97.8175 25.0854 97.6639 23.6259H100.867C101.036 24.2097 101.397 24.6706 101.95 25.0086C102.519 25.362 103.202 25.5387 104.001 25.5387C104.938 25.5387 105.699 25.2544 106.283 24.686C106.867 24.1329 107.159 23.2879 107.159 22.151V20.1691C106.744 20.7683 106.168 21.2676 105.43 21.6671C104.708 22.0665 103.878 22.2662 102.941 22.2662C101.866 22.2662 100.883 21.9897 99.9914 21.4366C99.1003 20.8835 98.3936 20.1077 97.8713 19.109C97.3643 18.0951 97.1108 16.9351 97.1108 15.6292C97.1108 14.3387 97.3643 13.1941 97.8713 12.1955C98.3936 11.1968 99.0927 10.4287 99.9684 9.89094C100.859 9.35321 101.85 9.08435 102.941 9.08435ZM107.159 15.6753C107.159 14.8918 107.005 14.2234 106.698 13.6704C106.39 13.1019 105.976 12.6717 105.453 12.3798C104.931 12.0726 104.37 11.9189 103.771 11.9189C103.172 11.9189 102.619 12.0649 102.112 12.3568C101.605 12.6487 101.19 13.0789 100.867 13.6473C100.56 14.2004 100.406 14.861 100.406 15.6292C100.406 16.3974 100.56 17.0734 100.867 17.6572C101.19 18.2256 101.605 18.6635 102.112 18.9708C102.634 19.278 103.187 19.4317 103.771 19.4317C104.37 19.4317 104.931 19.2857 105.453 18.9938C105.976 18.6865 106.39 18.2564 106.698 17.7033C107.005 17.1348 107.159 16.4588 107.159 15.6753Z" fill="#0E4690"/>
<path d="M112.268 15.6292C112.268 14.3387 112.522 13.1941 113.029 12.1955C113.551 11.1968 114.25 10.4287 115.126 9.89094C116.017 9.35321 117.008 9.08435 118.099 9.08435C119.051 9.08435 119.881 9.2764 120.588 9.66048C121.31 10.0446 121.886 10.5285 122.316 11.1123V9.29176H125.566V22.0588H122.316V20.1922C121.901 20.7913 121.325 21.2907 120.588 21.6901C119.866 22.0742 119.028 22.2662 118.076 22.2662C117 22.2662 116.017 21.9897 115.126 21.4366C114.25 20.8835 113.551 20.1077 113.029 19.109C112.522 18.0951 112.268 16.9351 112.268 15.6292ZM122.316 15.6753C122.316 14.8918 122.163 14.2234 121.855 13.6704C121.548 13.1019 121.133 12.6717 120.611 12.3798C120.088 12.0726 119.528 11.9189 118.929 11.9189C118.329 11.9189 117.776 12.0649 117.269 12.3568C116.762 12.6487 116.347 13.0789 116.025 13.6473C115.718 14.2004 115.564 14.861 115.564 15.6292C115.564 16.3974 115.718 17.0734 116.025 17.6572C116.347 18.2256 116.762 18.6635 117.269 18.9708C117.792 19.278 118.345 19.4317 118.929 19.4317C119.528 19.4317 120.088 19.2857 120.611 18.9938C121.133 18.6865 121.548 18.2564 121.855 17.7033C122.163 17.1348 122.316 16.4588 122.316 15.6753Z" fill="#0E4690"/>
<path d="M131.482 11.2737C131.897 10.5977 132.435 10.0676 133.095 9.68353C133.771 9.29944 134.539 9.1074 135.4 9.1074V12.4951H134.547C133.533 12.4951 132.765 12.7332 132.243 13.2095C131.736 13.6857 131.482 14.5154 131.482 15.6983V22.0588H128.256V9.29176H131.482V11.2737Z" fill="#0E4690"/>
</svg>
