<svg width="56" height="56" viewBox="0 0 56 56" fill="none" xmlns="http://www.w3.org/2000/svg">
<rect width="56" height="56" rx="4" fill="url(#paint0_linear_437_597)"/>
<mask id="mask0_437_597" style="mask-type:alpha" maskUnits="userSpaceOnUse" x="7" y="7" width="40" height="40">
<rect x="7" y="7" width="40" height="40" fill="#1A73E8"/>
</mask>
<g mask="url(#mask0_437_597)">
<path d="M12.0001 29.5L25.3334 10.3334V29.5H12.0001ZM18.3751 26.1667H22.0001V20.9584L18.3751 26.1667ZM27.8334 29.5C28.1667 28.7222 28.5278 27.3611 28.9167 25.4167C29.3056 23.4722 29.5001 21.5 29.5001 19.5C29.5001 17.5 29.3126 15.4445 28.9376 13.3334C28.5626 11.2222 28.1945 9.66669 27.8334 8.66669C29.5278 9.16669 31.2153 10.0972 32.8959 11.4584C34.5765 12.8195 36.0903 14.4445 37.4376 16.3334C38.7848 18.2222 39.882 20.2986 40.7292 22.5625C41.5765 24.8264 42.0001 27.1389 42.0001 29.5H27.8334ZM32.1667 26.1667H38.3334C37.8612 24.0278 37.0903 22.0695 36.0209 20.2917C34.9515 18.5139 33.8195 17 32.6251 15.75C32.6806 16.3334 32.7292 16.9375 32.7709 17.5625C32.8126 18.1875 32.8334 18.8334 32.8334 19.5C32.8334 20.8056 32.7709 22.0139 32.6459 23.125C32.5209 24.2361 32.3612 25.25 32.1667 26.1667ZM22.0001 38.6667C21.0001 38.6667 20.0695 38.4306 19.2084 37.9584C18.3473 37.4861 17.6112 36.8889 17.0001 36.1667C16.6112 36.5834 16.1876 36.9722 15.7292 37.3334C15.2709 37.6945 14.764 37.9861 14.2084 38.2084C13.2362 37.4861 12.4098 36.5903 11.7292 35.5209C11.0487 34.4514 10.5834 33.2778 10.3334 32H43.6667C43.4167 33.2778 42.9515 34.4514 42.2709 35.5209C41.5903 36.5903 40.764 37.4861 39.7917 38.2084C39.2362 37.9861 38.7292 37.6945 38.2709 37.3334C37.8126 36.9722 37.389 36.5834 37.0001 36.1667C36.3612 36.8889 35.6181 37.4861 34.7709 37.9584C33.9237 38.4306 33.0001 38.6667 32.0001 38.6667C31.0001 38.6667 30.0695 38.4306 29.2084 37.9584C28.3473 37.4861 27.6112 36.8889 27.0001 36.1667C26.389 36.8889 25.6528 37.4861 24.7917 37.9584C23.9306 38.4306 23.0001 38.6667 22.0001 38.6667ZM10.3334 45.3334V42H12.0001C12.889 42 13.757 41.8611 14.6042 41.5834C15.4515 41.3056 16.2501 40.8889 17.0001 40.3334C17.7501 40.8889 18.5487 41.2986 19.3959 41.5625C20.2431 41.8264 21.1112 41.9584 22.0001 41.9584C22.889 41.9584 23.7501 41.8264 24.5834 41.5625C25.4167 41.2986 26.2223 40.8889 27.0001 40.3334C27.7501 40.8889 28.5487 41.2986 29.3959 41.5625C30.2431 41.8264 31.1112 41.9584 32.0001 41.9584C32.889 41.9584 33.7501 41.8264 34.5834 41.5625C35.4167 41.2986 36.2223 40.8889 37.0001 40.3334C37.7778 40.8889 38.5834 41.3056 39.4167 41.5834C40.2501 41.8611 41.1112 42 42.0001 42H43.6667V45.3334H42.0001C41.139 45.3334 40.2917 45.2292 39.4584 45.0209C38.6251 44.8125 37.8056 44.5 37.0001 44.0834C36.1945 44.5 35.3751 44.8125 34.5417 45.0209C33.7084 45.2292 32.8612 45.3334 32.0001 45.3334C31.139 45.3334 30.2917 45.2292 29.4584 45.0209C28.6251 44.8125 27.8056 44.5 27.0001 44.0834C26.1945 44.5 25.3751 44.8125 24.5417 45.0209C23.7084 45.2292 22.8612 45.3334 22.0001 45.3334C21.139 45.3334 20.2917 45.2292 19.4584 45.0209C18.6251 44.8125 17.8056 44.5 17.0001 44.0834C16.1945 44.5 15.3751 44.8125 14.5417 45.0209C13.7084 45.2292 12.8612 45.3334 12.0001 45.3334H10.3334Z" fill="white"/>
</g>
<defs>
<linearGradient id="paint0_linear_437_597" x1="55.9999" y1="-1.41603e-05" x2="-4.00543e-05" y2="-2.38339e-05" gradientUnits="userSpaceOnUse">
<stop stop-color="#458EED"/>
<stop offset="0.5" stop-color="#1C74E9"/>
<stop offset="1" stop-color="#135DBE"/>
</linearGradient>
</defs>
</svg>
