<svg width="20" height="20" viewBox="0 0 20 20" fill="none" xmlns="http://www.w3.org/2000/svg">
<mask id="mask0_480_474" style="mask-type:alpha" maskUnits="userSpaceOnUse" x="0" y="0" width="20" height="20">
<rect width="20" height="20" fill="#1C74E9"/>
</mask>
<g mask="url(#mask0_480_474)">
<path d="M3.29199 15.833L1.70866 10.2497C1.66699 10.083 1.68435 9.88856 1.76074 9.66634C1.83713 9.44412 2.00033 9.29134 2.25033 9.20801L3.33366 8.83301V4.99967C3.33366 4.54134 3.49685 4.14898 3.82324 3.82259C4.14963 3.4962 4.54199 3.33301 5.00033 3.33301H7.50033V0.833008H12.5003V3.33301H15.0003C15.4587 3.33301 15.851 3.4962 16.1774 3.82259C16.5038 4.14898 16.667 4.54134 16.667 4.99967V8.83301L17.7503 9.20801C18.042 9.31912 18.2156 9.48231 18.2712 9.69759C18.3267 9.91287 18.3337 10.0969 18.292 10.2497L16.7087 15.833C16.0142 15.833 15.3823 15.6698 14.8128 15.3434C14.2434 15.017 13.7503 14.6247 13.3337 14.1663C12.917 14.6247 12.4239 15.017 11.8545 15.3434C11.285 15.6698 10.667 15.833 10.0003 15.833C9.33366 15.833 8.7156 15.6698 8.14616 15.3434C7.57671 15.017 7.08366 14.6247 6.66699 14.1663C6.25033 14.6247 5.75727 15.017 5.18783 15.3434C4.61838 15.6698 3.98644 15.833 3.29199 15.833ZM1.66699 19.1663V17.4997H3.33366C3.91699 17.4997 4.49338 17.4094 5.06283 17.2288C5.63227 17.0483 6.16699 16.7775 6.66699 16.4163C7.16699 16.7775 7.70171 17.0413 8.27116 17.208C8.8406 17.3747 9.41699 17.458 10.0003 17.458C10.5837 17.458 11.16 17.3747 11.7295 17.208C12.2989 17.0413 12.8337 16.7775 13.3337 16.4163C13.8337 16.7775 14.3684 17.0483 14.9378 17.2288C15.5073 17.4094 16.0837 17.4997 16.667 17.4997H18.3337V19.1663H16.667C16.0837 19.1663 15.5142 19.0969 14.9587 18.958C14.4031 18.8191 13.8614 18.6108 13.3337 18.333C12.8059 18.6108 12.2607 18.8191 11.6982 18.958C11.1357 19.0969 10.5698 19.1663 10.0003 19.1663C9.43088 19.1663 8.86491 19.0969 8.30241 18.958C7.73991 18.8191 7.19477 18.6108 6.66699 18.333C6.13921 18.6108 5.59755 18.8191 5.04199 18.958C4.48644 19.0969 3.91699 19.1663 3.33366 19.1663H1.66699ZM5.00033 8.29134L10.0003 6.66634L15.0003 8.29134V4.99967H5.00033V8.29134ZM10.0003 14.1663C10.6531 14.1663 11.2052 13.9372 11.6566 13.4788C12.108 13.0205 12.667 12.4025 13.3337 11.6247C14.0003 12.3747 14.4517 12.8886 14.6878 13.1663C14.9239 13.4441 15.2087 13.6802 15.542 13.8747L16.4587 10.5413L10.0003 8.41634L3.50033 10.5413L4.45866 13.833C4.79199 13.6386 5.07671 13.4163 5.31283 13.1663C5.54894 12.9163 6.00033 12.4025 6.66699 11.6247C7.36144 12.4163 7.92741 13.0379 8.36491 13.4893C8.80241 13.9406 9.34755 14.1663 10.0003 14.1663Z" fill="#1C74E9"/>
</g>
</svg>
