<svg width="20" height="20" viewBox="0 0 20 20" fill="none" xmlns="http://www.w3.org/2000/svg">
<mask id="mask0_493_724" style="mask-type:alpha" maskUnits="userSpaceOnUse" x="0" y="0" width="20" height="20">
<rect width="20" height="20" fill="#D9D9D9"/>
</mask>
<g mask="url(#mask0_493_724)">
<path d="M3.29175 15.8333L1.70841 10.2499C1.66675 10.0833 1.68411 9.88881 1.7605 9.66659C1.83689 9.44436 2.00008 9.29159 2.25008 9.20825L3.33341 8.83325V4.99992C3.33341 4.54159 3.49661 4.14922 3.823 3.82284C4.14939 3.49645 4.54175 3.33325 5.00008 3.33325H7.50008V0.833252H12.5001V3.33325H15.0001C15.4584 3.33325 15.8508 3.49645 16.1772 3.82284C16.5036 4.14922 16.6667 4.54159 16.6667 4.99992V8.83325L17.7501 9.20825C18.0417 9.31936 18.2154 9.48256 18.2709 9.69784C18.3265 9.91311 18.3334 10.0971 18.2917 10.2499L16.7084 15.8333C16.014 15.8333 15.382 15.6701 14.8126 15.3437C14.2431 15.0173 13.7501 14.6249 13.3334 14.1666C12.9167 14.6249 12.4237 15.0173 11.8542 15.3437C11.2848 15.6701 10.6667 15.8333 10.0001 15.8333C9.33341 15.8333 8.71536 15.6701 8.14591 15.3437C7.57647 15.0173 7.08341 14.6249 6.66675 14.1666C6.25008 14.6249 5.75703 15.0173 5.18758 15.3437C4.61814 15.6701 3.98619 15.8333 3.29175 15.8333ZM1.66675 19.1666V17.4999H3.33341C3.91675 17.4999 4.49314 17.4096 5.06258 17.2291C5.63203 17.0485 6.16675 16.7777 6.66675 16.4166C7.16675 16.7777 7.70147 17.0416 8.27091 17.2083C8.84036 17.3749 9.41675 17.4583 10.0001 17.4583C10.5834 17.4583 11.1598 17.3749 11.7292 17.2083C12.2987 17.0416 12.8334 16.7777 13.3334 16.4166C13.8334 16.7777 14.3681 17.0485 14.9376 17.2291C15.507 17.4096 16.0834 17.4999 16.6667 17.4999H18.3334V19.1666H16.6667C16.0834 19.1666 15.514 19.0971 14.9584 18.9583C14.4029 18.8194 13.8612 18.611 13.3334 18.3333C12.8056 18.611 12.2605 18.8194 11.698 18.9583C11.1355 19.0971 10.5695 19.1666 10.0001 19.1666C9.43064 19.1666 8.86466 19.0971 8.30216 18.9583C7.73966 18.8194 7.19453 18.611 6.66675 18.3333C6.13897 18.611 5.5973 18.8194 5.04175 18.9583C4.48619 19.0971 3.91675 19.1666 3.33341 19.1666H1.66675ZM5.00008 8.29159L10.0001 6.66659L15.0001 8.29159V4.99992H5.00008V8.29159ZM10.0001 14.1666C10.6529 14.1666 11.2049 13.9374 11.6563 13.4791C12.1077 13.0208 12.6667 12.4027 13.3334 11.6249C14.0001 12.3749 14.4515 12.8888 14.6876 13.1666C14.9237 13.4444 15.2084 13.6805 15.5417 13.8749L16.4584 10.5416L10.0001 8.41659L3.50008 10.5416L4.45841 13.8333C4.79175 13.6388 5.07647 13.4166 5.31258 13.1666C5.54869 12.9166 6.00008 12.4027 6.66675 11.6249C7.36119 12.4166 7.92717 13.0381 8.36467 13.4895C8.80217 13.9409 9.3473 14.1666 10.0001 14.1666Z" fill="#333333"/>
</g>
</svg>
