<svg width="24" height="24" viewBox="0 0 24 24" fill="none" xmlns="http://www.w3.org/2000/svg">
<mask id="mask0_387_154" style="mask-type:alpha" maskUnits="userSpaceOnUse" x="0" y="0" width="24" height="24">
<rect width="24" height="24" fill="#1A73E8"/>
</mask>
<g mask="url(#mask0_387_154)">
<path d="M12.001 17.0005C12.2843 17.0005 12.5218 16.9047 12.7135 16.713C12.9051 16.5213 13.001 16.2838 13.001 16.0005C13.001 15.7172 12.9051 15.4797 12.7135 15.288C12.5218 15.0963 12.2843 15.0005 12.001 15.0005C11.7176 15.0005 11.4801 15.0963 11.2885 15.288C11.0968 15.4797 11.001 15.7172 11.001 16.0005C11.001 16.2838 11.0968 16.5213 11.2885 16.713C11.4801 16.9047 11.7176 17.0005 12.001 17.0005ZM12.001 13.0005C12.2843 13.0005 12.5218 12.9047 12.7135 12.713C12.9051 12.5213 13.001 12.2838 13.001 12.0005C13.001 11.7172 12.9051 11.4797 12.7135 11.288C12.5218 11.0963 12.2843 11.0005 12.001 11.0005C11.7176 11.0005 11.4801 11.0963 11.2885 11.288C11.0968 11.4797 11.001 11.7172 11.001 12.0005C11.001 12.2838 11.0968 12.5213 11.2885 12.713C11.4801 12.9047 11.7176 13.0005 12.001 13.0005ZM12.001 9.00049C12.2843 9.00049 12.5218 8.90465 12.7135 8.71299C12.9051 8.52132 13.001 8.28382 13.001 8.00049C13.001 7.71715 12.9051 7.47965 12.7135 7.28799C12.5218 7.09632 12.2843 7.00049 12.001 7.00049C11.7176 7.00049 11.4801 7.09632 11.2885 7.28799C11.0968 7.47965 11.001 7.71715 11.001 8.00049C11.001 8.28382 11.0968 8.52132 11.2885 8.71299C11.4801 8.90465 11.7176 9.00049 12.001 9.00049ZM20.001 20.0005H4.00098C3.45098 20.0005 2.98014 19.8047 2.58848 19.413C2.19681 19.0213 2.00098 18.5505 2.00098 18.0005V14.0005C2.55098 14.0005 3.02181 13.8047 3.41348 13.413C3.80514 13.0213 4.00098 12.5505 4.00098 12.0005C4.00098 11.4505 3.80514 10.9797 3.41348 10.588C3.02181 10.1963 2.55098 10.0005 2.00098 10.0005V6.00049C2.00098 5.45049 2.19681 4.97965 2.58848 4.58799C2.98014 4.19632 3.45098 4.00049 4.00098 4.00049H20.001C20.551 4.00049 21.0218 4.19632 21.4135 4.58799C21.8051 4.97965 22.001 5.45049 22.001 6.00049V10.0005C21.451 10.0005 20.9801 10.1963 20.5885 10.588C20.1968 10.9797 20.001 11.4505 20.001 12.0005C20.001 12.5505 20.1968 13.0213 20.5885 13.413C20.9801 13.8047 21.451 14.0005 22.001 14.0005V18.0005C22.001 18.5505 21.8051 19.0213 21.4135 19.413C21.0218 19.8047 20.551 20.0005 20.001 20.0005ZM20.001 18.0005V15.4505C19.3843 15.0838 18.8968 14.5963 18.5385 13.988C18.1801 13.3797 18.001 12.7172 18.001 12.0005C18.001 11.2838 18.1801 10.6213 18.5385 10.013C18.8968 9.40465 19.3843 8.91715 20.001 8.55049V6.00049H4.00098V8.55049C4.61764 8.91715 5.10514 9.40465 5.46348 10.013C5.82181 10.6213 6.00098 11.2838 6.00098 12.0005C6.00098 12.7172 5.82181 13.3797 5.46348 13.988C5.10514 14.5963 4.61764 15.0838 4.00098 15.4505V18.0005H20.001Z" fill="#808080"/>
</g>
</svg>
